<svg xmlns="http://www.w3.org/2000/svg" version="1.1" xmlns:xlink="http://www.w3.org/1999/xlink" xmlns:svgjs="http://svgjs.dev/svgjs" width="1000" height="1000" viewBox="0 0 1000 1000"><rect width="1000" height="1000" fill="#ffffff"></rect><g transform="matrix(0.7,0,0,0.7,149.57575757575756,282.1265587044535)"><svg viewBox="0 0 396 247" data-background-color="#ffffff" preserveAspectRatio="xMidYMid meet" height="623" width="1000" xmlns="http://www.w3.org/2000/svg" xmlns:xlink="http://www.w3.org/1999/xlink"><defs></defs><g id="tight-bounds" transform="matrix(1,0,0,1,0.2400000000000091,-0.09999999999999432)"><svg viewBox="0 0 395.52 247.2" height="247.2" width="395.52"><g><svg></svg></g><g><svg viewBox="0 0 395.52 247.2" height="247.2" width="395.52"><g transform="matrix(1,0,0,1,75.54432,103.16674849436541)"><svg viewBox="0 0 244.43135999999998 40.86650301126916" height="40.86650301126916" width="244.43135999999998"><g><svg viewBox="0 0 244.43135999999998 40.86650301126916" height="40.86650301126916" width="244.43135999999998"><g><svg viewBox="0 0 244.43135999999998 40.86650301126916" height="40.86650301126916" width="244.43135999999998"><g><svg viewBox="0 0 244.43135999999998 40.86650301126916" height="40.86650301126916" width="244.43135999999998"><g><svg viewBox="0 0 244.43135999999998 40.86650301126916" height="40.86650301126916" width="244.43135999999998"><g><svg viewBox="0 0 244.43135999999998 40.86650301126916" height="40.86650301126916" width="244.43135999999998"><g transform="matrix(1,0,0,1,0,0)"><svg width="244.43135999999998" viewBox="3.6500000953674316 -36.20000076293945 270.6199951171875 45.25" height="40.86650301126916" data-palette-color="#332885"><path d="M15.6-16.7L28.7 0 22.2 0 9.45-16.65 21.7-33.7 27.95-33.7 15.6-16.7ZM8.8-33.7L8.8 0 3.65 0 3.65-33.7 8.8-33.7ZM41.6-3.65L41.6-3.65Q44-3.65 45.37-4.98 46.75-6.3 46.75-8.45L46.75-8.45 46.75-11.3 42.95-11.3Q40.15-11.3 38.72-10.2 37.3-9.1 37.3-7.4L37.3-7.4Q37.3-5.65 38.4-4.65 39.5-3.65 41.6-3.65ZM46.9 0L46.9-3Q44.95 0.2 40.05 0.2L40.05 0.2Q36.45 0.2 34.27-1.88 32.1-3.95 32.1-7.15L32.1-7.15Q32.1-10.8 34.85-12.83 37.6-14.85 42.55-14.85L42.55-14.85 46.75-14.85 46.75-16.3Q46.75-18.9 45.5-20.23 44.25-21.55 41.35-21.55L41.35-21.55Q37.3-21.55 34-19.3L34-19.3 34-24.05Q36.95-25.75 41.8-25.75L41.8-25.75Q51.75-25.75 51.75-16.1L51.75-16.1 51.75 0 46.9 0ZM79.45-25.35L70.3-0.7Q66.65 9.05 59.15 9.05L59.15 9.05Q57.8 9.05 56.85 8.8L56.85 8.8 56.85 4.6Q57.65 4.8 58.55 4.8L58.55 4.8Q63.4 4.8 65.35-0.55L65.35-0.55 55.25-25.35 60.7-25.35 63.85-17.1 67.8-6.4Q68.25-7.9 71.4-17.1L71.4-17.1 74.25-25.35 79.45-25.35ZM103.09-22.03Q106.24-18.35 106.24-12.65 106.24-6.95 103.02-3.25 99.79 0.45 94.14 0.45L94.14 0.45Q88.54 0.45 85.34-3.2 82.14-6.85 82.14-12.45L82.14-12.45Q82.14-18.15 85.44-21.93 88.74-25.7 94.14-25.7L94.14-25.7Q99.94-25.7 103.09-22.03ZM87.24-12.6L87.24-12.6Q87.24-8.85 89.09-6.28 90.94-3.7 94.14-3.7L94.14-3.7Q97.54-3.7 99.32-6.2 101.09-8.7 101.09-12.55L101.09-12.55Q101.09-16.5 99.39-19.03 97.69-21.55 94.09-21.55L94.09-21.55Q90.84-21.55 89.04-18.98 87.24-16.4 87.24-12.6ZM125.04-5.05L125.04-0.65Q123.39 0.25 120.99 0.25L120.99 0.25Q113.14 0.25 113.14-7.7L113.14-7.7 113.14-21.55 109.19-21.55 109.19-25.35 113.14-25.35 113.14-31.55 118.09-31.55 118.09-25.35 124.74-25.35 124.74-21.55 118.09-21.55 118.09-7.6Q118.09-3.95 121.59-3.95L121.59-3.95Q123.64-3.95 125.04-5.05L125.04-5.05ZM135.59-25.35L135.59 0 130.64 0 130.64-25.35 135.59-25.35ZM136.19-33.1L136.19-33.1Q136.19-31.85 135.29-30.95 134.39-30.05 133.09-30.05 131.79-30.05 130.91-30.93 130.04-31.8 130.04-33.1 130.04-34.4 130.91-35.3 131.79-36.2 133.09-36.2 134.39-36.2 135.29-35.3 136.19-34.4 136.19-33.1ZM160.59-5.4L160.59-1Q158.14 0.5 154.34 0.5L154.34 0.5Q148.39 0.5 144.84-3.25 141.29-7 141.29-12.6L141.29-12.6Q141.29-18.05 144.86-21.93 148.44-25.8 154.54-25.8L154.54-25.8Q157.84-25.8 160.59-24.4L160.59-24.4 160.59-19.9Q158.14-21.45 155.04-21.45L155.04-21.45Q151.09-21.45 148.71-18.95 146.34-16.45 146.34-12.55L146.34-12.55Q146.44-8.7 148.69-6.23 150.94-3.75 154.99-3.75L154.99-3.75Q157.99-3.75 160.59-5.4L160.59-5.4ZM198.98-33.7L198.98-29.4 190.13-29.4 190.13 0 184.98 0 184.98-29.4 176.18-29.4 176.18-33.7 198.98-33.7ZM222.43-5.75L222.43-1.35Q219.63 0.25 215.03 0.25L215.03 0.25Q209.13 0.25 205.63-3.3 202.13-6.85 202.13-12.6L202.13-12.6Q202.13-18.7 205.33-22.18 208.53-25.65 213.48-25.65L213.48-25.65Q218.33-25.65 221.18-22.63 224.03-19.6 224.03-13.9L224.03-13.9Q224.03-12.35 223.73-10.65L223.73-10.65 207.08-10.65Q207.58-7.35 209.88-5.6 212.18-3.85 215.68-3.85L215.68-3.85Q219.73-3.85 222.43-5.75L222.43-5.75ZM213.58-21.6L213.58-21.6Q211.08-21.6 209.28-19.78 207.48-17.95 207.03-14.5L207.03-14.5 219.28-14.5 219.28-15.4Q219.18-18.25 217.73-19.93 216.28-21.6 213.58-21.6ZM247.68-5.4L247.68-1Q245.23 0.5 241.43 0.5L241.43 0.5Q235.48 0.5 231.93-3.25 228.38-7 228.38-12.6L228.38-12.6Q228.38-18.05 231.95-21.93 235.53-25.8 241.63-25.8L241.63-25.8Q244.93-25.8 247.68-24.4L247.68-24.4 247.68-19.9Q245.23-21.45 242.13-21.45L242.13-21.45Q238.18-21.45 235.8-18.95 233.43-16.45 233.43-12.55L233.43-12.55Q233.53-8.7 235.78-6.23 238.03-3.75 242.08-3.75L242.08-3.75Q245.08-3.75 247.68-5.4L247.68-5.4ZM274.27-17L274.27 0 269.37 0 269.37-16Q269.37-18.6 268.05-20.03 266.72-21.45 264.57-21.45L264.57-21.45Q262.07-21.45 260.15-19.55 258.22-17.65 258.22-13.75L258.22-13.75 258.22 0 253.32 0 253.32-35.35 258.22-35.35 258.22-21Q260.37-25.7 266.07-25.7L266.07-25.7Q269.77-25.7 272.02-23.4 274.27-21.1 274.27-17L274.27-17Z" opacity="1" transform="matrix(1,0,0,1,0,0)" fill="#000000" class="undefined-text-0" data-fill-palette-color="primary" id="text-0"></path></svg></g></svg></g></svg></g></svg></g></svg></g></svg></g></svg></g><path d="M211.285 97.167L211.285 34.993 388.499 34.993 388.499 212.207 211.285 212.207 211.285 150.033 214.97 150.033 214.97 208.521 384.813 208.521 384.813 38.679 214.97 38.679 214.97 97.167Z" fill="#000000" stroke="transparent" data-fill-palette-color="primary"></path></svg></g></svg><rect width="395.52" height="247.2" fill="none" stroke="none" visibility="hidden"></rect></g></svg></g></svg>